 <svg xmlns="http://www.w3.org/2000/svg" fill="#3B82F6" viewBox="0 0 24 24" stroke="none">
    <path d="M21.51,14a10.35,10.35,0,0,0,.21-1.65l2.28-2a12,12,0,0,0-1.3-4l-3-.31a9.8,9.8,0,0,0-2.49-2.22l-.62-3a12.12,12.12,0,0,0-2-.61A12.55,12.55,0,0,0,12.43,0L10.64,2.46a9.48,9.48,0,0,0-3.18,1l-2.9-1a12,12,0,0,0-2.83,3.1L3,8.4A9.82,9.82,0,0,0,2.49,10a10.35,10.35,0,0,0-.21,1.65L0,13.66a12,12,0,0,0,1.3,4l3,.31a9.8,9.8,0,0,0,2.49,2.22l.62,3a12.12,12.12,0,0,0,2,.61,12.55,12.55,0,0,0,2.1.26l1.79-2.46a9.48,9.48,0,0,0,3.18-1l2.9.95a12,12,0,0,0,2.83-3.1L21,15.6A9.82,9.82,0,0,0,21.51,14Zm-6.74,7a12.37,12.37,0,0,1-8.12-5,10.75,10.75,0,0,1-1.48-3.49,13.89,13.89,0,0,0,.09,5.2v0c.06.33.14.65.22,1a.94.94,0,0,1,0,.16l0,0a12.12,12.12,0,0,1,.28-9.47,10.58,10.58,0,0,1,2.3-3A13.74,13.74,0,0,0,3.59,9.1l0,0c-.25.21-.5.44-.75.68l-.12.12v0a12.32,12.32,0,0,1,8.42-4.51,10.75,10.75,0,0,1,3.78.47,14.08,14.08,0,0,0-4.58-2.52h0l-1-.3L9.17,3h0a12.29,12.29,0,0,1,8.14,5,10.75,10.75,0,0,1,1.48,3.49,13.89,13.89,0,0,0-.09-5.2v0c-.06-.33-.14-.65-.22-1l0-.15,0,0a12.15,12.15,0,0,1-.28,9.46,10.58,10.58,0,0,1-2.3,3,13.74,13.74,0,0,0,4.49-2.67l0,0c.25-.21.5-.44.75-.68l.1-.1v0a12.36,12.36,0,0,1-8.4,4.48,10.75,10.75,0,0,1-3.78-.47,14.08,14.08,0,0,0,4.58,2.52h0l1,.3.14,0Z"/>
</svg>
